<?xml version="1.0" encoding="UTF-8" standalone="no"?>
<svg
   width="38.148636"
   height="36.23851"
   viewBox="0 0 38.148636 36.23851"
   fill="none"
   version="1.1"
   id="svg10"
   xmlns="http://www.w3.org/2000/svg"
   xmlns:svg="http://www.w3.org/2000/svg">
  <mask
     id="mask0_0_43"
     maskUnits="userSpaceOnUse"
     x="0"
     y="0"
     width="40"
     height="38">
    <path
       fill-rule="evenodd"
       clip-rule="evenodd"
       d="M 21.777,26.7743 29.2338,38 0,32.0297 8.97653,7.50414 14.1471,15.2881 10.7662,24.5255 Z M 14.1471,15.2881 19.7427,0 40,30.4959 21.777,26.7743 Z"
       fill="#ffffff"
       id="path1" />
  </mask>
  <defs
     id="defs10" />
  <path
     id="path10-6-1-2-7-9"
     style="fill:#ffffff;fill-opacity:1;fill-rule:nonzero;stroke:none;stroke-width:7.55906"
     d="M 19.100933,1.8379292e-4 A 0.97540896,0.97540896 0 0 0 18.165393,0.64080379 l -4.92969,13.46874921 7.64453,11.50196 16.3125,3.33398 a 0.79565154,0.79565154 0 0 0 0.82227,-1.2207 L 19.893903,0.43573379 A 0.97540896,0.97540896 0 0 0 19.100933,1.8379292e-4 Z m 1.7793,25.61132920708 -9.14063,-1.86719 a 1.6590922,1.6590922 0 0 1 -1.22656,-2.19727 l 2.72266,-7.4375 -3.4570302,-5.2011692 a 1.5565689,1.5565689 0 0 0 -2.75977,0.32617 L 0.16148284,27.968933 a 2.6456426,2.6456426 0 0 0 1.95311996,3.50195 l 23.2089902,4.74219 a 1.2682304,1.2682304 0 0 0 1.30859,-1.94531 z" />
</svg>
